<svg xml:space="preserve" viewBox="-653.38 500.76 1067.04 432" version="1.1" xmlns:xlink="http://www.w3.org/1999/xlink" xmlns="http://www.w3.org/2000/svg" style="max-height: 500px" width="200" height="80"><desc>Created with Fabric.js 5.2.4</desc><defs></defs><rect fill="currentColor" height="100%" width="100%" y="0" x="0" /><g id="671fa892-a85a-4298-a2d3-64efabdfdb86" transform="matrix(1 0 0 1 540 540)"><rect height="1080" width="1080" ry="0" rx="0" y="-540" x="-540" style="stroke: none; stroke-width: 1; stroke-dasharray: none; stroke-linecap: butt; stroke-dashoffset: 0; stroke-linejoin: miter; stroke-miterlimit: 4; fill: rgb(255,255,255); fill-rule: nonzero; opacity: 1; visibility: hidden;" /></g><g id="124b3f51-0eab-4b44-8ec2-2184a8817919" transform="matrix(Infinity NaN NaN Infinity 0 0)"></g><g transform="matrix(0.35 0 0 0.35 -359.98 712.9)"><g style="">		<g transform="matrix(0.13 0 0 -0.13 344.51 -15.63)"><path stroke-linecap="round" d="M 13362 12701 C 13304 12655 13221 12535 13190 12453 C 13147 12338 13153 12208 13207 12088 L 13233 12030 L 13217 11928 C 13173 11640 13194 11351 13289 10944 C 13387 10525 13405 10399 13405 10140 C 13405 9957 13403 9927 13382 9857 C 13346 9730 13311 9674 13194 9550 C 13134 9487 13083 9434 13080 9432 C 13076 9431 13055 9489 13033 9562 C 13001 9665 12991 9716 12987 9790 C 12973 10064 12812 10286 12575 10360 C 12375 10421 12171 10381 11990 10244 C 11886 10165 11815 10094 11630 9881 C 11534 9770 11453 9680 11450 9680 C 11447 9680 11435 9708 11422 9743 C 11368 9895 11240 10048 10989 10264 C 10483 10699 10252 10964 10101 11280 C 10029 11434 10002 11512 9944 11750 C 9806 12310 9723 12531 9609 12639 C 9549 12695 9468 12697 9421 12644 C 9400 12619 9398 12609 9403 12552 C 9407 12499 9419 12467 9478 12350 L 9548 12211 L 9507 12216 C 9416 12227 9360 12150 9360 12014 C 9360 11945 9367 11904 9396 11803 C 9401 11783 9399 11782 9363 11786 C 9282 11796 9229 11727 9222 11605 C 9219 11541 9232 11469 9276 11323 C 9281 11305 9278 11300 9265 11300 C 9235 11300 9183 11237 9166 11180 C 9146 11112 9146 10988 9166 10874 C 9174 10825 9187 10752 9194 10713 C 9201 10673 9204 10640 9200 10640 C 9184 10640 8981 10842 8877 10963 C 8727 11136 8594 11317 8425 11575 C 8349 11691 8262 11823 8231 11870 C 8200 11917 8132 11998 8080 12051 C 8003 12129 7970 12155 7906 12186 C 7834 12221 7818 12225 7749 12225 C 7686 12225 7666 12221 7644 12204 C 7596 12169 7577 12134 7572 12076 C 7565 11989 7594 11898 7667 11783 L 7700 11730 L 7671 11730 C 7628 11730 7577 11690 7562 11645 C 7544 11592 7558 11513 7601 11427 L 7632 11363 L 7606 11318 C 7573 11261 7540 11133 7540 11060 C 7540 10910 7598 10777 7715 10654 C 7756 10610 7785 10573 7779 10571 C 7752 10562 7700 10506 7689 10473 C 7670 10414 7683 10322 7721 10250 C 7763 10171 7816 10113 7924 10026 C 7971 9988 8010 9953 8010 9949 C 8010 9945 8001 9938 7989 9935 C 7954 9923 7920 9836 7920 9755 C 7920 9673 7931 9629 7972 9541 C 8012 9457 8104 9365 8192 9319 C 8230 9301 8260 9282 8260 9279 C 8260 9276 8249 9267 8235 9260 C 8189 9235 8165 9183 8166 9110 C 8167 9027 8195 8967 8271 8886 C 8338 8814 8423 8762 8580 8695 C 8643 8668 8697 8644 8699 8643 C 8702 8641 8694 8630 8683 8617 C 8650 8581 8640 8554 8640 8503 C 8641 8402 8688 8325 8802 8237 C 8877 8179 8880 8175 8880 8136 C 8881 8016 8936 7902 9044 7795 C 9135 7704 9229 7650 9370 7605 C 9443 7582 9477 7577 9610 7573 C 9789 7567 9860 7579 9995 7634 C 10198 7716 10349 7877 10419 8087 C 10440 8150 10448 8222 10431 8205 C 10426 8199 10417 8177 10410 8155 C 10403 8133 10384 8088 10367 8055 C 10260 7839 10084 7705 9841 7654 C 9754 7637 9562 7634 9480 7650 C 9220 7699 9014 7849 8942 8042 C 8919 8104 8911 8156 8925 8152 C 8931 8151 8973 8137 9020 8120 C 9089 8096 9139 8088 9290 8075 C 9392 8066 9495 8055 9520 8050 C 9578 8038 9580 8038 9580 8050 C 9580 8078 9463 8111 9259 8140 C 9024 8174 8885 8234 8768 8350 C 8666 8453 8656 8576 8749 8611 C 8768 8619 8794 8610 8885 8567 C 9020 8501 9080 8464 9189 8375 C 9245 8330 9275 8311 9282 8318 C 9296 8332 9143 8483 9055 8542 C 8959 8605 8853 8658 8668 8733 C 8582 8769 8481 8815 8443 8836 C 8272 8931 8177 9082 8224 9181 C 8242 9220 8264 9236 8311 9245 C 8339 9250 8362 9243 8438 9205 C 8542 9153 8628 9077 8674 8998 C 8689 8971 8706 8950 8711 8950 C 8748 8950 8672 9088 8593 9167 C 8538 9222 8507 9241 8356 9315 C 8170 9406 8106 9452 8051 9538 C 8009 9604 7970 9712 7970 9763 C 7970 9847 8006 9920 8046 9920 C 8087 9920 8337 9633 8362 9558 C 8364 9552 8371 9550 8378 9554 C 8404 9570 8318 9732 8223 9845 C 8191 9884 8093 9975 8006 10049 C 7834 10195 7780 10258 7749 10345 C 7725 10414 7730 10467 7765 10504 C 7790 10531 7843 10540 7855 10520 C 7858 10515 7869 10510 7878 10510 C 7904 10510 8049 10389 8091 10334 C 8111 10307 8137 10266 8149 10243 C 8175 10191 8195 10186 8186 10233 C 8177 10282 8124 10380 8080 10432 C 8058 10457 7983 10522 7914 10576 C 7767 10690 7695 10766 7647 10858 C 7592 10963 7578 11062 7601 11184 C 7613 11251 7646 11333 7659 11328 C 7664 11326 7685 11304 7707 11279 C 7728 11254 7788 11185 7841 11127 C 7959 10997 8030 10904 8073 10823 C 8105 10760 8128 10745 8122 10791 C 8116 10833 8045 10972 7992 11045 C 7964 11084 7889 11176 7825 11250 C 7760 11324 7693 11408 7676 11435 C 7595 11560 7588 11654 7657 11677 C 7707 11694 7741 11676 7823 11586 C 7912 11488 7960 11449 7960 11475 C 7960 11483 7934 11519 7901 11554 C 7675 11797 7570 12056 7666 12138 C 7690 12159 7701 12162 7750 12158 C 7848 12151 7961 12077 8062 11952 C 8095 11912 8205 11745 8305 11582 C 8589 11121 8723 10945 8999 10670 C 9236 10433 9456 10262 9749 10088 C 9876 10012 10114 9893 10255 9835 C 10696 9653 10998 9412 11081 9174 C 11118 9070 11116 8987 11074 8851 C 11061 8809 11093 8832 11118 8883 C 11179 9009 11167 9161 11084 9330 C 11039 9420 11026 9436 10851 9614 C 10686 9781 10511 9942 10440 9992 C 10149 10197 9971 10350 9884 10470 C 9763 10635 9724 10831 9797 10904 C 9811 10918 9834 10931 9849 10931 C 9873 10933 9873 10933 9852 10937 C 9820 10943 9781 10915 9763 10872 C 9740 10818 9750 10702 9785 10620 C 9861 10438 10015 10277 10318 10062 C 10462 9959 10612 9836 10685 9760 C 10739 9703 10737 9703 10640 9766 C 10575 9807 10400 9897 10220 9981 C 10040 10065 9825 10181 9792 10213 C 9710 10292 9630 10443 9596 10585 C 9588 10618 9581 10634 9581 10621 C 9579 10558 9651 10366 9703 10296 C 9744 10242 9746 10236 9719 10251 C 9648 10288 9415 10453 9312 10539 L 9253 10588 L 9247 10667 C 9244 10710 9232 10797 9220 10860 C 9199 10984 9194 11133 9210 11191 C 9222 11232 9264 11284 9282 11278 C 9297 11273 9352 11119 9386 10990 C 9400 10938 9417 10841 9424 10775 C 9441 10618 9454 10648 9447 10828 C 9441 10982 9427 11043 9333 11320 C 9285 11462 9277 11498 9273 11580 C 9268 11668 9270 11678 9292 11710 C 9310 11737 9323 11746 9351 11748 C 9407 11753 9423 11730 9478 11565 C 9534 11400 9560 11287 9560 11211 C 9560 11151 9576 11135 9586 11185 C 9603 11276 9571 11439 9485 11700 C 9450 11807 9416 11923 9410 11957 C 9386 12077 9422 12172 9494 12178 C 9527 12181 9537 12176 9569 12142 C 9611 12099 9650 11995 9650 11930 C 9650 11886 9665 11876 9672 11915 C 9685 11982 9649 12091 9540 12310 C 9433 12525 9417 12599 9471 12629 C 9554 12675 9651 12552 9744 12284 C 9783 12169 9805 12086 9889 11739 C 9922 11603 9965 11448 9986 11394 C 10137 10990 10399 10668 10965 10193 C 11116 10067 11241 9937 11307 9838 C 11367 9748 11406 9652 11392 9630 C 11377 9606 11308 9562 11258 9545 C 11197 9524 11180 9481 11219 9446 C 11237 9429 11242 9429 11292 9444 C 11397 9474 11496 9564 11693 9805 C 11966 10139 12114 10263 12292 10305 C 12413 10333 12552 10315 12665 10257 C 12741 10217 12845 10113 12887 10035 C 12935 9943 12971 9827 12975 9747 C 12977 9703 12990 9637 13010 9576 C 13027 9522 13039 9476 13036 9473 C 13033 9470 12992 9500 12945 9539 C 12868 9602 12840 9620 12840 9605 C 12840 9603 12873 9575 12913 9544 C 12952 9512 12987 9485 12989 9483 C 12991 9481 12991 9478 12988 9475 C 12986 9472 12958 9479 12927 9489 C 12796 9534 12655 9537 12557 9495 C 12508 9475 12435 9408 12404 9355 C 12352 9266 12339 9180 12330 8855 C 12320 8534 12310 8412 12279 8230 C 12160 7534 11831 7101 11273 6907 C 11172 6871 10995 6828 10986 6837 C 10981 6842 11017 6922 11141 7183 C 11199 7303 11229 7377 11225 7389 C 11216 7419 11193 7433 11164 7426 C 11142 7420 11125 7391 11050 7237 C 10702 6518 10570 6067 10570 5600 C 10570 5061 10762 4619 11114 4346 C 11483 4059 11908 4007 12293 4201 C 12529 4320 12760 4562 12879 4813 C 13021 5113 13047 5434 12954 5720 C 12900 5885 12818 6013 12691 6133 C 12402 6405 12017 6480 11706 6324 C 11613 6277 11559 6237 11479 6153 C 11190 5854 11173 5434 11439 5170 C 11553 5057 11659 5011 11805 5010 C 12107 5009 12316 5256 12246 5529 C 12220 5629 12141 5740 12095 5740 C 12054 5740 12056 5710 12099 5666 C 12223 5539 12227 5335 12108 5205 C 12076 5169 12035 5139 11992 5118 C 11928 5086 11920 5085 11810 5085 C 11700 5085 11692 5086 11627 5118 C 11333 5263 11237 5643 11417 5949 C 11494 6078 11642 6211 11775 6269 C 12013 6374 12330 6316 12566 6126 C 12798 5940 12915 5688 12914 5380 C 12914 5064 12794 4773 12567 4532 C 12270 4219 11884 4112 11509 4241 C 11235 4335 10975 4569 10836 4846 C 10606 5303 10619 5899 10872 6566 L 10922 6698 L 10959 6693 C 11037 6682 11316 6768 11494 6857 C 12025 7123 12322 7637 12390 8405 C 12396 8471 12402 8662 12404 8830 C 12407 9076 12411 9147 12425 9199 C 12449 9292 12482 9352 12536 9399 C 12604 9459 12665 9474 12809 9467 C 12916 9463 13060 9436 13060 9421 C 13060 9418 13041 9392 13019 9365 C 12906 9230 12898 9135 12975 8835 C 13036 8596 13041 8504 12998 8426 C 12951 8344 12964 8324 13023 8389 C 13072 8444 13085 8488 13084 8605 C 13084 8691 13077 8732 13035 8895 C 13004 9019 12987 9108 12986 9150 C 12984 9262 13017 9306 13266 9537 C 13371 9634 13392 9659 13424 9723 C 13482 9841 13495 9915 13494 10140 C 13494 10374 13470 10530 13383 10870 C 13289 11236 13268 11350 13250 11583 C 13239 11728 13251 11964 13271 12001 C 13276 12012 13289 12020 13298 12020 C 13331 12020 13397 12073 13433 12127 C 13497 12224 13518 12403 13484 12568 C 13468 12648 13433 12740 13420 12740 C 13415 12740 13389 12722 13362 12701 z" transform="translate(-10520.07, -8412.79)" style="stroke: none; stroke-width: 1; stroke-dasharray: none; stroke-linecap: butt; stroke-dashoffset: 0; stroke-linejoin: miter; stroke-miterlimit: 4; fill: rgb(0,0,0); fill-rule: nonzero; opacity: 1;" /></g>		<g transform="matrix(0.13 0 0 -0.13 660.17 -489.28)"><path stroke-linecap="round" d="M 12668 12234 C 12663 12230 12660 12212 12660 12194 C 12660 11969 12894 11681 13067 11692 L 13115 11695 L 13114 11795 C 13114 11884 13111 11902 13085 11955 C 13041 12046 12942 12141 12839 12190 C 12755 12229 12682 12248 12668 12234 z" transform="translate(-12887.5, -11965.14)" style="stroke: none; stroke-width: 1; stroke-dasharray: none; stroke-linecap: butt; stroke-dashoffset: 0; stroke-linejoin: miter; stroke-miterlimit: 4; fill: rgb(0,0,0); fill-rule: nonzero; opacity: 1;" /></g>		<g transform="matrix(0.13 0 0 -0.13 763.85 -460.41)"><path stroke-linecap="round" d="M 13672 11945 C 13539 11914 13414 11820 13357 11709 C 13323 11640 13323 11618 13360 11587 C 13497 11471 13774 11586 13957 11833 C 14009 11904 14011 11924 13968 11940 C 13916 11959 13744 11961 13672 11945 z" transform="translate(-13665.08, -11748.68)" style="stroke: none; stroke-width: 1; stroke-dasharray: none; stroke-linecap: butt; stroke-dashoffset: 0; stroke-linejoin: miter; stroke-miterlimit: 4; fill: rgb(0,0,0); fill-rule: nonzero; opacity: 1;" /></g>		<g transform="matrix(0.13 0 0 -0.13 648.95 -421.86)"><path stroke-linecap="round" d="M 12500 11707 C 12500 11555 12682 11308 12853 11225 C 12971 11169 13093 11163 13105 11213 C 13114 11249 13085 11372 13050 11441 C 13005 11530 12927 11607 12832 11658 C 12743 11705 12622 11740 12548 11740 C 12500 11740 12500 11740 12500 11707 z" transform="translate(-12803.33, -11459.48)" style="stroke: none; stroke-width: 1; stroke-dasharray: none; stroke-linecap: butt; stroke-dashoffset: 0; stroke-linejoin: miter; stroke-miterlimit: 4; fill: rgb(0,0,0); fill-rule: nonzero; opacity: 1;" /></g>		<g transform="matrix(0.13 0 0 -0.13 779.18 -374.94)"><path stroke-linecap="round" d="M 13834 11340 C 13728 11312 13644 11266 13575 11196 C 13506 11128 13451 11027 13443 10957 C 13438 10918 13441 10911 13464 10892 C 13504 10861 13583 10847 13649 10860 C 13805 10889 13992 11054 14089 11247 C 14124 11317 14128 11345 14104 11354 C 14070 11367 13903 11358 13834 11340 z" transform="translate(-13780.07, -11107.65)" style="stroke: none; stroke-width: 1; stroke-dasharray: none; stroke-linecap: butt; stroke-dashoffset: 0; stroke-linejoin: miter; stroke-miterlimit: 4; fill: rgb(0,0,0); fill-rule: nonzero; opacity: 1;" /></g>		<g transform="matrix(0.13 0 0 -0.13 653.51 -342.45)"><path stroke-linecap="round" d="M 12530 11113 C 12488 11105 12486 11094 12519 11024 C 12614 10822 12825 10635 12982 10614 C 13051 10605 13115 10617 13151 10647 C 13179 10671 13182 10678 13177 10713 C 13168 10777 13104 10896 13046 10953 C 12986 11014 12882 11071 12791 11095 C 12724 11112 12575 11123 12530 11113 z" transform="translate(-12837.57, -10863.94)" style="stroke: none; stroke-width: 1; stroke-dasharray: none; stroke-linecap: butt; stroke-dashoffset: 0; stroke-linejoin: miter; stroke-miterlimit: 4; fill: rgb(0,0,0); fill-rule: nonzero; opacity: 1;" /></g>		<g transform="matrix(0.13 0 0 -0.13 261.61 -348.64)"><path stroke-linecap="round" d="M 9896 10908 C 9906 10894 9917 10884 9919 10886 C 9922 10889 9913 10901 9901 10913 L 9877 10935 L 9896 10908 z" transform="translate(-9898.29, -10910.37)" style="stroke: none; stroke-width: 1; stroke-dasharray: none; stroke-linecap: butt; stroke-dashoffset: 0; stroke-linejoin: miter; stroke-miterlimit: 4; fill: rgb(0,0,0); fill-rule: nonzero; opacity: 1;" /></g>		<g transform="matrix(0.13 0 0 -0.13 255.85 -336.57)"><path stroke-linecap="round" d="M 9840 10833 C 9840 10827 9848 10816 9858 10809 C 9874 10796 9874 10796 9860 10815 C 9852 10826 9844 10837 9843 10839 C 9841 10841 9840 10839 9840 10833 z" transform="translate(-9855.13, -10819.82)" style="stroke: none; stroke-width: 1; stroke-dasharray: none; stroke-linecap: butt; stroke-dashoffset: 0; stroke-linejoin: miter; stroke-miterlimit: 4; fill: rgb(0,0,0); fill-rule: nonzero; opacity: 1;" /></g>		<g transform="matrix(0.13 0 0 -0.13 263.27 -337.06)"><path stroke-linecap="round" d="M 9906 10823 C 9900 10809 9901 10808 9911 10817 C 9918 10824 9921 10832 9918 10835 C 9915 10838 9909 10833 9906 10823 z" transform="translate(-9910.72, -10823.52)" style="stroke: none; stroke-width: 1; stroke-dasharray: none; stroke-linecap: butt; stroke-dashoffset: 0; stroke-linejoin: miter; stroke-miterlimit: 4; fill: rgb(0,0,0); fill-rule: nonzero; opacity: 1;" /></g>		<g transform="matrix(0.13 0 0 -0.13 791.54 -291.03)"><path stroke-linecap="round" d="M 13880 10666 C 13759 10631 13655 10552 13603 10453 C 13556 10364 13555 10346 13590 10317 C 13645 10270 13737 10265 13835 10302 C 13889 10323 13995 10398 14048 10453 C 14103 10512 14180 10624 14180 10647 C 14180 10654 14168 10665 14154 10670 C 14118 10684 13934 10681 13880 10666 z" transform="translate(-13872.76, -10478.29)" style="stroke: none; stroke-width: 1; stroke-dasharray: none; stroke-linecap: butt; stroke-dashoffset: 0; stroke-linejoin: miter; stroke-miterlimit: 4; fill: rgb(0,0,0); fill-rule: nonzero; opacity: 1;" /></g>		<g transform="matrix(0.13 0 0 -0.13 679.86 -269.58)"><path stroke-linecap="round" d="M 12814 10496 C 12810 10485 12824 10446 12850 10393 C 12881 10329 12911 10289 12964 10235 C 13047 10151 13095 10125 13166 10125 C 13265 10125 13282 10176 13223 10296 C 13163 10419 13042 10498 12898 10508 C 12831 10512 12820 10510 12814 10496 z" transform="translate(-13035.17, -10317.41)" style="stroke: none; stroke-width: 1; stroke-dasharray: none; stroke-linecap: butt; stroke-dashoffset: 0; stroke-linejoin: miter; stroke-miterlimit: 4; fill: rgb(0,0,0); fill-rule: nonzero; opacity: 1;" /></g>		<g transform="matrix(0.13 0 0 -0.13 214.84 -155.87)"><path stroke-linecap="round" d="M 8435 10477 C 8402 10461 8375 10439 8355 10410 C 8328 10371 8325 10359 8325 10286 C 8325 10219 8330 10195 8353 10146 C 8408 10029 8500 9946 8664 9870 C 8849 9783 9063 9725 9495 9645 C 9677 9611 9832 9571 9956 9525 C 10440 9344 10750 9008 10754 8661 C 10755 8574 10735 8496 10704 8459 C 10688 8441 10686 8430 10698 8430 C 10709 8430 10745 8505 10759 8555 C 10765 8577 10770 8627 10770 8665 C 10769 8969 10522 9283 10135 9470 C 9939 9566 9768 9619 9511 9666 C 8960 9766 8720 9841 8529 9971 C 8420 10044 8353 10149 8343 10259 C 8331 10391 8407 10479 8533 10480 C 8631 10480 8700 10418 8708 10323 C 8713 10259 8697 10214 8661 10195 C 8641 10184 8639 10181 8653 10180 C 8680 10180 8718 10226 8725 10270 C 8740 10357 8700 10438 8626 10475 C 8562 10507 8501 10507 8435 10477 z" transform="translate(-9547.5, -9464.63)" style="stroke: none; stroke-width: 1; stroke-dasharray: none; stroke-linecap: butt; stroke-dashoffset: 0; stroke-linejoin: miter; stroke-miterlimit: 4; fill: rgb(0,0,0); fill-rule: nonzero; opacity: 1;" /></g>		<g transform="matrix(0.13 0 0 -0.13 87.67 -256.89)"><path stroke-linecap="round" d="M 8560 10250 C 8560 10215 8587 10180 8613 10181 C 8631 10182 8632 10183 8617 10187 C 8606 10190 8590 10211 8579 10233 C 8563 10269 8560 10271 8560 10250 z" transform="translate(-8593.72, -10222.23)" style="stroke: none; stroke-width: 1; stroke-dasharray: none; stroke-linecap: butt; stroke-dashoffset: 0; stroke-linejoin: miter; stroke-miterlimit: 4; fill: rgb(0,0,0); fill-rule: nonzero; opacity: 1;" /></g>		<g transform="matrix(0.13 0 0 -0.13 602.5 -208.72)"><path stroke-linecap="round" d="M 12330 9911 C 12330 9890 12373 9851 12417 9832 C 12475 9808 12580 9792 12580 9809 C 12580 9815 12568 9822 12553 9826 C 12462 9846 12350 9893 12350 9912 C 12350 9916 12346 9920 12340 9920 C 12335 9920 12330 9916 12330 9911 z" transform="translate(-12455, -9860.96)" style="stroke: none; stroke-width: 1; stroke-dasharray: none; stroke-linecap: butt; stroke-dashoffset: 0; stroke-linejoin: miter; stroke-miterlimit: 4; fill: rgb(0,0,0); fill-rule: nonzero; opacity: 1;" /></g>		<g transform="matrix(0.13 0 0 -0.13 274.46 -76.29)"><path stroke-linecap="round" d="M 9749 9102 C 9652 9076 9579 9013 9551 8931 C 9531 8870 9537 8780 9566 8722 C 9590 8673 9640 8629 9671 8630 C 9679 8631 9669 8639 9650 8648 C 9570 8688 9532 8801 9562 8918 C 9578 8983 9655 9059 9729 9083 C 9849 9121 10028 9099 10133 9033 C 10244 8963 10367 8809 10423 8670 C 10438 8634 10450 8611 10450 8618 C 10450 8644 10389 8774 10344 8841 C 10250 8980 10124 9072 9983 9104 C 9893 9124 9833 9124 9749 9102 z" transform="translate(-9994.64, -8867.75)" style="stroke: none; stroke-width: 1; stroke-dasharray: none; stroke-linecap: butt; stroke-dashoffset: 0; stroke-linejoin: miter; stroke-miterlimit: 4; fill: rgb(0,0,0); fill-rule: nonzero; opacity: 1;" /></g>		<g transform="matrix(0.13 0 0 -0.13 238.99 -68.1)"><path stroke-linecap="round" d="M 9725 8809 C 9721 8803 9720 8797 9723 8794 C 9725 8791 9730 8796 9733 8805 C 9740 8822 9734 8825 9725 8809 z" transform="translate(-9728.66, -8806.32)" style="stroke: none; stroke-width: 1; stroke-dasharray: none; stroke-linecap: butt; stroke-dashoffset: 0; stroke-linejoin: miter; stroke-miterlimit: 4; fill: rgb(0,0,0); fill-rule: nonzero; opacity: 1;" /></g>		<g transform="matrix(0.13 0 0 -0.13 251.84 -67.91)"><path stroke-linecap="round" d="M 9810 8816 C 9810 8814 9818 8806 9828 8799 C 9843 8786 9844 8787 9831 8803 C 9818 8819 9810 8824 9810 8816 z" transform="translate(-9825.03, -8804.9)" style="stroke: none; stroke-width: 1; stroke-dasharray: none; stroke-linecap: butt; stroke-dashoffset: 0; stroke-linejoin: miter; stroke-miterlimit: 4; fill: rgb(0,0,0); fill-rule: nonzero; opacity: 1;" /></g>		<g transform="matrix(0.13 0 0 -0.13 251.11 -55.26)"><path stroke-linecap="round" d="M 9840 8741 C 9840 8712 9833 8694 9811 8671 C 9795 8654 9786 8640 9790 8640 C 9795 8640 9810 8654 9824 8671 C 9842 8692 9850 8713 9850 8741 C 9850 8762 9848 8780 9845 8780 C 9842 8780 9840 8762 9840 8741 z" transform="translate(-9819.53, -8710)" style="stroke: none; stroke-width: 1; stroke-dasharray: none; stroke-linecap: butt; stroke-dashoffset: 0; stroke-linejoin: miter; stroke-miterlimit: 4; fill: rgb(0,0,0); fill-rule: nonzero; opacity: 1;" /></g>		<g transform="matrix(0.13 0 0 -0.13 -242 294.02)"><path stroke-linecap="round" d="M 10516 8313 C 10513 8303 10499 8241 10485 8175 C 10326 7431 9990 6687 9539 6084 C 8651 4895 7413 4177 5955 4005 C 5113 3906 4226 4021 3460 4328 C 2532 4700 1950 5321 1814 6085 C 1789 6230 1790 6483 1818 6611 C 1873 6866 1981 7057 2146 7192 C 2459 7447 2874 7407 3076 7103 C 3162 6973 3174 6817 3109 6679 C 3059 6575 2996 6509 2903 6463 C 2836 6430 2819 6426 2751 6425 C 2693 6425 2663 6431 2626 6448 C 2452 6528 2352 6727 2406 6886 C 2424 6940 2419 6963 2388 6958 C 2353 6953 2327 6865 2332 6765 C 2338 6654 2379 6565 2463 6482 C 2590 6357 2734 6323 2895 6379 C 3084 6445 3230 6656 3230 6862 C 3230 7014 3177 7134 3055 7256 C 2965 7346 2860 7406 2740 7436 C 2655 7458 2462 7450 2375 7422 C 2031 7312 1796 7025 1715 6614 C 1690 6490 1685 6267 1704 6124 C 1813 5302 2432 4612 3421 4212 C 3827 4047 4261 3940 4759 3879 C 5001 3849 5536 3842 5795 3864 C 6722 3944 7575 4238 8315 4733 C 8574 4905 8820 5110 9065 5355 C 9511 5801 9816 6229 10090 6794 C 10240 7104 10335 7355 10424 7685 C 10484 7905 10550 8230 10550 8308 C 10550 8334 10524 8338 10516 8313 z" transform="translate(-6121.23, -6090.45)" style="stroke: none; stroke-width: 1; stroke-dasharray: none; stroke-linecap: butt; stroke-dashoffset: 0; stroke-linejoin: miter; stroke-miterlimit: 4; fill: rgb(0,0,0); fill-rule: nonzero; opacity: 1;" /></g></g></g><g id="faf8b811-4967-4883-a5f6-657758bddac9" style="" transform="matrix(2.96 0 0 2.96 1972.52 787.25)">		<text style="stroke: none; stroke-width: 1; stroke-dasharray: none; stroke-linecap: butt; stroke-dashoffset: 0; stroke-linejoin: miter; stroke-miterlimit: 4; fill: rgb(0,0,0); fill-rule: nonzero; opacity: 1; white-space: pre;" font-weight="900" font-style="normal" font-size="96" font-family="Raleway" xml:space="preserve" /></g><g id="ac3e68e2-7996-4c87-8604-b8e7d39d713b" style="" transform="matrix(0.59 0 0 0.59 199.03 758.71)">		<text style="stroke: none; stroke-width: 1; stroke-dasharray: none; stroke-linecap: butt; stroke-dashoffset: 0; stroke-linejoin: miter; stroke-miterlimit: 4; fill: rgb(0,0,0); fill-rule: nonzero; opacity: 1; white-space: pre;" font-weight="700" font-style="normal" font-size="176" font-family="Alegreya" xml:space="preserve"><tspan y="-143.59" x="-438.86">Pacific</tspan><tspan y="55.29" x="-438.86">Northwest</tspan><tspan y="254.17" x="-438.86">Revival</tspan></text></g></svg>