<!-- <?xml version="1.0" standalone="no"?> -->
<svg version="1.0" xmlns="http://www.w3.org/2000/svg"
    width="1600.000000pt" height="1599.000000pt" viewBox="0 0 1600.000000 1599.000000"
    preserveAspectRatio="xMidYMid meet">

    <g transform="translate(0.000000,1599.000000) scale(0.100000,-0.100000)"
        fill="#fff">
        <path
            d="M13362 12701 c-58 -46 -141 -166 -172 -248 -43 -115 -37 -245 17
-365 l26 -58 -16 -102 c-44 -288 -23 -577 72 -984 98 -419 116 -545 116 -804
0 -183 -2 -213 -23 -283 -36 -127 -71 -183 -188 -307 -60 -63 -111 -116 -114
-118 -4 -1 -25 57 -47 130 -32 103 -42 154 -46 228 -14 274 -175 496 -412 570
-200 61 -404 21 -585 -116 -104 -79 -175 -150 -360 -363 -96 -111 -177 -201
-180 -201 -3 0 -15 28 -28 63 -54 152 -182 305 -433 521 -506 435 -737 700
-888 1016 -72 154 -99 232 -157 470 -138 560 -221 781 -335 889 -60 56 -141
58 -188 5 -21 -25 -23 -35 -18 -92 4 -53 16 -85 75 -202 l70 -139 -41 5 c-91
11 -147 -66 -147 -202 0 -69 7 -110 36 -211 5 -20 3 -21 -33 -17 -81 10 -134
-59 -141 -181 -3 -64 10 -136 54 -282 5 -18 2 -23 -11 -23 -30 0 -82 -63 -99
-120 -20 -68 -20 -192 0 -306 8 -49 21 -122 28 -161 7 -40 10 -73 6 -73 -16 0
-219 202 -323 323 -150 173 -283 354 -452 612 -76 116 -163 248 -194 295 -31
47 -99 128 -151 181 -77 78 -110 104 -174 135 -72 35 -88 39 -157 39 -63 0
-83 -4 -105 -21 -48 -35 -67 -70 -72 -128 -7 -87 22 -178 95 -293 l33 -53 -29
0 c-43 0 -94 -40 -109 -85 -18 -53 -4 -132 39 -218 l31 -64 -26 -45 c-33 -57
-66 -185 -66 -258 0 -150 58 -283 175 -406 41 -44 70 -81 64 -83 -27 -9 -79
-65 -90 -98 -19 -59 -6 -151 32 -223 42 -79 95 -137 203 -224 47 -38 86 -73
86 -77 0 -4 -9 -11 -21 -14 -35 -12 -69 -99 -69 -180 0 -82 11 -126 52 -214
40 -84 132 -176 220 -222 38 -18 68 -37 68 -40 0 -3 -11 -12 -25 -19 -46 -25
-70 -77 -69 -150 1 -83 29 -143 105 -224 67 -72 152 -124 309 -191 63 -27 117
-51 119 -52 3 -2 -5 -13 -16 -26 -33 -36 -43 -63 -43 -114 1 -101 48 -178 162
-266 75 -58 78 -62 78 -101 1 -120 56 -234 164 -341 91 -91 185 -145 326 -190
73 -23 107 -28 240 -32 179 -6 250 6 385 61 203 82 354 243 424 453 21 63 29
135 12 118 -5 -6 -14 -28 -21 -50 -7 -22 -26 -67 -43 -100 -107 -216 -283
-350 -526 -401 -87 -17 -279 -20 -361 -4 -260 49 -466 199 -538 392 -23 62
-31 114 -17 110 6 -1 48 -15 95 -32 69 -24 119 -32 270 -45 102 -9 205 -20
230 -25 58 -12 60 -12 60 0 0 28 -117 61 -321 90 -235 34 -374 94 -491 210
-102 103 -112 226 -19 261 19 8 45 -1 136 -44 135 -66 195 -103 304 -192 56
-45 86 -64 93 -57 14 14 -139 165 -227 224 -96 63 -202 116 -387 191 -86 36
-187 82 -225 103 -171 95 -266 246 -219 345 18 39 40 55 87 64 28 5 51 -2 127
-40 104 -52 190 -128 236 -207 15 -27 32 -48 37 -48 37 0 -39 138 -118 217
-55 55 -86 74 -237 148 -186 91 -250 137 -305 223 -42 66 -81 174 -81 225 0
84 36 157 76 157 41 0 291 -287 316 -362 2 -6 9 -8 16 -4 26 16 -60 178 -155
291 -32 39 -130 130 -217 204 -172 146 -226 209 -257 296 -24 69 -19 122 16
159 25 27 78 36 90 16 3 -5 14 -10 23 -10 26 0 171 -121 213 -176 20 -27 46
-68 58 -91 26 -52 46 -57 37 -10 -9 49 -62 147 -106 199 -22 25 -97 90 -166
144 -147 114 -219 190 -267 282 -55 105 -69 204 -46 326 12 67 45 149 58 144
5 -2 26 -24 48 -49 21 -25 81 -94 134 -152 118 -130 189 -223 232 -304 32 -63
55 -78 49 -32 -6 42 -77 181 -130 254 -28 39 -103 131 -167 205 -65 74 -132
158 -149 185 -81 125 -88 219 -19 242 50 17 84 -1 166 -91 89 -98 137 -137
137 -111 0 8 -26 44 -59 79 -226 243 -331 502 -235 584 24 21 35 24 84 20 98
-7 211 -81 312 -206 33 -40 143 -207 243 -370 284 -461 418 -637 694 -912 237
-237 457 -408 750 -582 127 -76 365 -195 506 -253 441 -182 743 -423 826 -661
37 -104 35 -187 -7 -323 -13 -42 19 -19 44 32 61 126 49 278 -34 447 -45 90
-58 106 -233 284 -165 167 -340 328 -411 378 -291 205 -469 358 -556 478 -121
165 -160 361 -87 434 14 14 37 27 52 27 24 2 24 2 3 6 -32 6 -71 -22 -89 -65
-23 -54 -13 -170 22 -252 76 -182 230 -343 533 -558 144 -103 294 -226 367
-302 54 -57 52 -57 -45 6 -65 41 -240 131 -420 215 -180 84 -395 200 -428 232
-82 79 -162 230 -196 372 -8 33 -15 49 -15 36 -2 -63 70 -255 122 -325 41 -54
43 -60 16 -45 -71 37 -304 202 -407 288 l-59 49 -6 79 c-3 43 -15 130 -27 193
-21 124 -26 273 -10 331 12 41 54 93 72 87 15 -5 70 -159 104 -288 14 -52 31
-149 38 -215 17 -157 30 -127 23 53 -6 154 -20 215 -114 492 -48 142 -56 178
-60 260 -5 88 -3 98 19 130 18 27 31 36 59 38 56 5 72 -18 127 -183 56 -165
82 -278 82 -354 0 -60 16 -76 26 -26 17 91 -15 254 -101 515 -35 107 -69 223
-75 257 -24 120 12 215 84 221 33 3 43 -2 75 -36 42 -43 81 -147 81 -212 0
-44 15 -54 22 -15 13 67 -23 176 -132 395 -107 215 -123 289 -69 319 83 46
180 -77 273 -345 39 -115 61 -198 145 -545 33 -136 76 -291 97 -345 151 -404
413 -726 979 -1201 151 -126 276 -256 342 -355 60 -90 99 -186 85 -208 -15
-24 -84 -68 -134 -85 -61 -21 -78 -64 -39 -99 18 -17 23 -17 73 -2 105 30 204
120 401 361 273 334 421 458 599 500 121 28 260 10 373 -48 76 -40 180 -144
222 -222 48 -92 84 -208 88 -288 2 -44 15 -110 35 -171 17 -54 29 -100 26
-103 -3 -3 -44 27 -91 66 -77 63 -105 81 -105 66 0 -2 33 -30 73 -61 39 -32
74 -59 76 -61 2 -2 2 -5 -1 -8 -2 -3 -30 4 -61 14 -131 45 -272 48 -370 6 -49
-20 -122 -87 -153 -140 -52 -89 -65 -175 -74 -500 -10 -321 -20 -443 -51 -625
-119 -696 -448 -1129 -1006 -1323 -101 -36 -278 -79 -287 -70 -5 5 31 85 155
346 58 120 88 194 84 206 -9 30 -32 44 -61 37 -22 -6 -39 -35 -114 -189 -348
-719 -480 -1170 -480 -1637 0 -539 192 -981 544 -1254 369 -287 794 -339 1179
-145 236 119 467 361 586 612 142 300 168 621 75 907 -54 165 -136 293 -263
413 -289 272 -674 347 -985 191 -93 -47 -147 -87 -227 -171 -289 -299 -306
-719 -40 -983 114 -113 220 -159 366 -160 302 -1 511 246 441 519 -26 100
-105 211 -151 211 -41 0 -39 -30 4 -74 124 -127 128 -331 9 -461 -32 -36 -73
-66 -116 -87 -64 -32 -72 -33 -182 -33 -110 0 -118 1 -183 33 -294 145 -390
525 -210 831 77 129 225 262 358 320 238 105 555 47 791 -143 232 -186 349
-438 348 -746 0 -316 -120 -607 -347 -848 -297 -313 -683 -420 -1058 -291
-274 94 -534 328 -673 605 -230 457 -217 1053 36 1720 l50 132 37 -5 c78 -11
357 75 535 164 531 266 828 780 896 1548 6 66 12 257 14 425 3 246 7 317 21
369 24 93 57 153 111 200 68 60 129 75 273 68 107 -4 251 -31 251 -46 0 -3
-19 -29 -41 -56 -113 -135 -121 -230 -44 -530 61 -239 66 -331 23 -409 -47
-82 -34 -102 25 -37 49 55 62 99 61 216 0 86 -7 127 -49 290 -31 124 -48 213
-49 255 -2 112 31 156 280 387 105 97 126 122 158 186 58 118 71 192 70 417 0
234 -24 390 -111 730 -94 366 -115 480 -133 713 -11 145 1 381 21 418 5 11 18
19 27 19 33 0 99 53 135 107 64 97 85 276 51 441 -16 80 -51 172 -64 172 -5 0
-31 -18 -58 -39z" />
        <path
            d="M12668 12234 c-5 -4 -8 -22 -8 -40 0 -225 234 -513 407 -502 l48 3
-1 100 c0 89 -3 107 -29 160 -44 91 -143 186 -246 235 -84 39 -157 58 -171 44z" />
        <path
            d="M13672 11945 c-133 -31 -258 -125 -315 -236 -34 -69 -34 -91 3 -122
137 -116 414 -1 597 246 52 71 54 91 11 107 -52 19 -224 21 -296 5z" />
        <path
            d="M12500 11707 c0 -152 182 -399 353 -482 118 -56 240 -62 252 -12 9
36 -20 159 -55 228 -45 89 -123 166 -218 217 -89 47 -210 82 -284 82 -48 0
-48 0 -48 -33z" />
        <path
            d="M13834 11340 c-106 -28 -190 -74 -259 -144 -69 -68 -124 -169 -132
-239 -5 -39 -2 -46 21 -65 40 -31 119 -45 185 -32 156 29 343 194 440 387 35
70 39 98 15 107 -34 13 -201 4 -270 -14z" />
        <path
            d="M12530 11113 c-42 -8 -44 -19 -11 -89 95 -202 306 -389 463 -410 69
-9 133 3 169 33 28 24 31 31 26 66 -9 64 -73 183 -131 240 -60 61 -164 118
-255 142 -67 17 -216 28 -261 18z" />
        <path
            d="M9896 10908 c10 -14 21 -24 23 -22 3 3 -6 15 -18 27 l-24 22 19 -27z" />
        <path
            d="M9840 10833 c0 -6 8 -17 18 -24 16 -13 16 -13 2 6 -8 11 -16 22 -17
24 -2 2 -3 0 -3 -6z" />
        <path
            d="M9906 10823 c-6 -14 -5 -15 5 -6 7 7 10 15 7 18 -3 3 -9 -2 -12 -12z" />
        <path
            d="M13880 10666 c-121 -35 -225 -114 -277 -213 -47 -89 -48 -107 -13
-136 55 -47 147 -52 245 -15 54 21 160 96 213 151 55 59 132 171 132 194 0 7
-12 18 -26 23 -36 14 -220 11 -274 -4z" />
        <path
            d="M12814 10496 c-4 -11 10 -50 36 -103 31 -64 61 -104 114 -158 83 -84
131 -110 202 -110 99 0 116 51 57 171 -60 123 -181 202 -325 212 -67 4 -78 2
-84 -12z" />
        <path
            d="M8435 10477 c-33 -16 -60 -38 -80 -67 -27 -39 -30 -51 -30 -124 0
-67 5 -91 28 -140 55 -117 147 -200 311 -276 185 -87 399 -145 831 -225 182
-34 337 -74 461 -120 484 -181 794 -517 798 -864 1 -87 -19 -165 -50 -202 -16
-18 -18 -29 -6 -29 11 0 47 75 61 125 6 22 11 72 11 110 -1 304 -248 618 -635
805 -196 96 -367 149 -624 196 -551 100 -791 175 -982 305 -109 73 -176 178
-186 288 -12 132 64 220 190 221 98 0 167 -62 175 -157 5 -64 -11 -109 -47
-128 -20 -11 -22 -14 -8 -15 27 0 65 46 72 90 15 87 -25 168 -99 205 -64 32
-125 32 -191 2z" />
        <path
            d="M8560 10250 c0 -35 27 -70 53 -69 18 1 19 2 4 6 -11 3 -27 24 -38 46
-16 36 -19 38 -19 17z" />
        <path
            d="M12330 9911 c0 -21 43 -60 87 -79 58 -24 163 -40 163 -23 0 6 -12 13
-27 17 -91 20 -203 67 -203 86 0 4 -4 8 -10 8 -5 0 -10 -4 -10 -9z" />
        <path
            d="M9749 9102 c-97 -26 -170 -89 -198 -171 -20 -61 -14 -151 15 -209 24
-49 74 -93 105 -92 8 1 -2 9 -21 18 -80 40 -118 153 -88 270 16 65 93 141 167
165 120 38 299 16 404 -50 111 -70 234 -224 290 -363 15 -36 27 -59 27 -52 0
26 -61 156 -106 223 -94 139 -220 231 -361 263 -90 20 -150 20 -234 -2z" />
        <path d="M9725 8809 c-4 -6 -5 -12 -2 -15 2 -3 7 2 10 11 7 17 1 20 -8 4z" />
        <path
            d="M9810 8816 c0 -2 8 -10 18 -17 15 -13 16 -12 3 4 -13 16 -21 21 -21
13z" />
        <path
            d="M9840 8741 c0 -29 -7 -47 -29 -70 -16 -17 -25 -31 -21 -31 5 0 20 14
34 31 18 21 26 42 26 70 0 21 -2 39 -5 39 -3 0 -5 -18 -5 -39z" />
        <path
            d="M10516 8313 c-3 -10 -17 -72 -31 -138 -159 -744 -495 -1488 -946
-2091 -888 -1189 -2126 -1907 -3584 -2079 -842 -99 -1729 16 -2495 323 -928
372 -1510 993 -1646 1757 -25 145 -24 398 4 526 55 255 163 446 328 581 313
255 728 215 930 -89 86 -130 98 -286 33 -424 -50 -104 -113 -170 -206 -216
-67 -33 -84 -37 -152 -38 -58 0 -88 6 -125 23 -174 80 -274 279 -220 438 18
54 13 77 -18 72 -35 -5 -61 -93 -56 -193 6 -111 47 -200 131 -283 127 -125
271 -159 432 -103 189 66 335 277 335 483 0 152 -53 272 -175 394 -90 90 -195
150 -315 180 -85 22 -278 14 -365 -14 -344 -110 -579 -397 -660 -808 -25 -124
-30 -347 -11 -490 109 -822 728 -1512 1717 -1912 406 -165 840 -272 1338 -333
242 -30 777 -37 1036 -15 927 80 1780 374 2520 869 259 172 505 377 750 622
446 446 751 874 1025 1439 150 310 245 561 334 891 60 220 126 545 126 623 0
26 -26 30 -34 5z" />
    </g>
</svg>